<svg id="Layer_1" data-name="Layer 1" xmlns="http://www.w3.org/2000/svg" viewBox="0 0 717.89343 877.34365"><defs><style>.cls-1{fill:#050505;}</style></defs><title>logo</title><path class="cls-1" d="M243.91082,891.55293c-3.39577,3.06672-6.99628,5.93944-10.13405,9.25075-3.674,3.87746-2.746,7.68055,2.99721,8.938a61.93322,61.93322,0,0,0,17.57664,1.14786c25.02164-1.75647,49.68468-6.06509,74.11814-11.5548,30.68236-6.8937,61.40482-13.73411,91.50252-22.90747,18.53918-5.65044,36.74866-12.37834,55.13183-18.54606,27.33282-9.17045,54.18289-19.60524,80.6028-31.11488,15.40034-6.70908,30.53141-14.01277,45.44409-21.7853a437.98388,437.98388,0,0,0,41.8312-24.74941c5.44173-3.6545,10.06891-8.35881,14.63738-13.02759,4.36352-4.45947,4.396-9.95911,3.13627-15.76321-2.2062-10.16622-7.01885-19.4808-9.11776-29.71606-4.30451-20.99088-3.67583-41.94667-.52751-62.93884,2.93323-19.55733,8.87458-38.35289,15.44942-56.90587a256.56629,256.56629,0,0,1,12.74482-29.56436,445.93314,445.93314,0,0,1,25.52125-43.62706c2.188-3.34031,4.65578-6.49,6.3974-10.14363a1.533,1.533,0,0,0-2.152-.2048c-11.39453,6.59959-22.90025,13.00341-34.79619,18.64918-17.77566,8.4361-35.49482,17.23967-54.78116,21.66191-26.16057,5.9985-52.48142,11.43431-79.57838,10.44016-20.805-.76327-40.99225-4.44372-60.282-12.68661-14.21213-6.07317-26.99961-14.05266-38.10995-24.89212-11.64673-11.3627-20.28973-24.44173-25.0539-40.04281-1.48308-4.85646-1.48644-4.66667-6.38034-2.75193q-36.785,14.3922-73.64863,28.58245a9.73433,9.73433,0,0,0-5.637,4.9222,202.87643,202.87643,0,0,1-16.13356,26.04194c-6.16556,8.5606-12.24646,17.336-20.54691,24.22636a54.52254,54.52254,0,0,1-11.59359,7.54365c-3.37434,1.59263-6.80959,1.088-9.02352-1.52688-2.3442-2.76875-.663-5.8709,1.20582-8.57375a40.08275,40.08275,0,0,0,3.15424-5.17456c6.96927-14.31828,14.496-28.33551,20.66057-43.08509,5.11154-12.23006,8.88984-24.90091,13.89775-37.10657,4.82445-11.75859,7.56649-24.15921,12.08528-35.94339,5.35813-13.97295,8.15126-28.61763,12.556-42.81329,7.00445-22.57433,9.87943-45.87889,13.5271-69.09067a282.63487,282.63487,0,0,0,1.583-76.96744c-2.57258-21.956-6.07317-43.969-13.37987-65.03291a304.64752,304.64752,0,0,0-11.49709-29.20259,285.98961,285.98961,0,0,0-25.88733-44.80232,233.77538,233.77538,0,0,0-21.29311-25.74705,216.51767,216.51767,0,0,0-40.66638-33.94074,64.68455,64.68455,0,0,0-13.39833-6.04068c-1.21536-.425-3.071-.67154-3.0324-2.79136.03648-1.99948,1.74116-2.42293,2.97393-2.98063,5.88449-2.662,11.844-1.34627,17.67149.22882,13.91145,3.7601,26.184,10.80807,37.57772,19.43886A237.37275,237.37275,0,0,1,311.681,96.10816a319.70324,319.70324,0,0,1,24.25787,29.63905c5.09833,6.97291,8.92446,14.63329,13.68693,21.725,5.07184,7.55234,7.94983,16.08988,12.17209,23.98407,6.09962,11.40411,9.12589,23.85041,13.34665,35.90938,8.31485,23.75586,10.72549,48.46608,13.02258,73.27319.98662,10.65479,2.15782,21.32551,1.292,31.94924-1.81067,22.219-3.41012,44.486-7.54356,66.44985-1.2408,6.59363-2.68112,13.15367-3.75014,19.7743-.66045,4.09006-2.97685,7.61738-3.5285,11.7046-.122.9035-.77541,1.91725.52139,2.44007a2.1342,2.1342,0,0,0,2.49088-.91582,9.34772,9.34772,0,0,0,.7161-1.00246c5.80405-8.76476,12.84573-16.576,19.30024-24.83473,8.95989-11.46445,18.32917-22.61441,27.69533-33.75426,7.8704-9.3609,15.92636-18.56829,24.011-27.746,8.90895-10.11348,17.75955-20.289,26.98009-30.11426,8.19371-8.73111,16.20848-17.61857,24.31979-26.42036,8.8511-9.60468,17.83247-19.08786,26.59143-28.7825,7.01243-7.7615,14.35546-15.22579,21.60184-22.774,13.95611-14.53743,27.88964-29.09733,41.95013-43.53344,6.54433-6.71924,13.27192-13.26721,20.0769-19.72381q21.33944-20.24689,42.879-40.282c7.58912-7.01951,15.39463-13.81545,23.28624-20.49525C690.854,80.89982,704.875,69.49141,719.27457,58.55735c1.09427-.83094,1.518-2.80935,3.29645-2.1654-5.35682,5.62585-10.7841,11.3467-16.24461,17.03568-.74128.7723-1.71793,1.317-2.46975,2.08115-11.4703,11.65922-22.8311,23.42788-34.407,34.98109-8.3837,8.36724-16.54489,16.94476-24.82512,25.40782-13.25045,13.543-26.2792,27.26874-38.9099,41.40025q-12.38256,13.854-24.832,27.65511c-8.55342,9.53331-16.87891,19.26052-25.38807,28.82474-8.32338,9.35545-16.388,18.92407-24.60663,28.36375q-13.4117,15.40423-26.56966,31.01848-11.95078,14.23812-24.19363,28.23783c-5.27553,6.04786-10.48934,12.15754-15.17975,18.60823-3.75532,5.16491-5.41072,11.61567-7.92986,17.52663A375.15436,375.15436,0,0,0,440.36127,407.152c-4.4963,16.65964-5.57311,33.33667-4.87207,50.36083.1237,3.00475,1.20221,3.36638,3.71693,2.78575a79.6305,79.6305,0,0,1,24.06979-1.94136c15.03221,1.13825,22.58239,12.287,17.60574,26.41476-3.08378,8.75445-6.456,17.40723-9.72275,26.17016l-.12355.04993c.07186-.088.19069-.16726.20875-.26516,1.4868-8.0232,2.86309-16.06863,4.49109-24.06292.7448-3.65786.06072-7.14967-.86122-10.53545a6.62941,6.62941,0,0,0-6.37592-4.99993c-9.49564-.493-18.43787,1.94881-27.19206,5.30378-1.40214.53735-1.5711,1.25982-1.06592,2.82479,4.90554,15.19476,14.039,27.20411,26.69742,36.817,20.06938,15.24092,43.20849,21.066,67.79274,22.626,20.515,1.302,40.67872-1.96789,60.93979-4.455,20.02572-2.45821,38.91291-8.36077,57.46419-16.006a509.85078,509.85078,0,0,0,51.34158-24.46547,568.3519,568.3519,0,0,0,50.16151-30.87271c12.9072-8.94208,25.33929-18.46346,37.67472-28.15708q20.26-15.92083,38.87026-33.69379c8.77071-8.3567,17.39619-16.81528,25.61148-25.73392,8.48838-9.21527,16.92277-18.4353,24.83466-28.17229a422.85062,422.85062,0,0,0,25.73021-35.2357c4.73768-7.24119,8.35991-14.98939,12.69393-22.38,6.19506-10.56436,9.31237-22.28388,13.81991-33.487,4.37878-10.88325,4.4392-22.4121,6.79966-32.278,1.14245,13.87826-1.91685,28.61688-6.09911,42.96537-3.29736,11.3127-6.49275,22.79521-11.64915,33.49055-4.20435,8.72037-8.40689,17.48671-13.33727,25.80151a426.57312,426.57312,0,0,1-25.24906,37.65177c-7.64964,10.23953-15.8292,20.11381-24.22956,29.753-8.22754,9.44112-16.83164,18.5776-25.63928,27.48309-8.13932,8.22972-16.48829,16.30295-25.28369,23.81429-5.36726,4.58377-10.37462,9.58872-16.13481,13.77618a59.07676,59.07676,0,0,0-14.21826,15.1054c-6.66738,9.99821-13.98562,19.52827-20.97918,29.28024C748.4019,516.063,739.924,529.80328,731.466,543.59926c-3.779,6.16421-6.564,12.80915-10.15593,19.0263-5.76761,9.9825-9.47877,20.85794-14.28711,31.24486-5.60814,12.11463-8.55472,24.99238-12.53054,37.59167a194.80285,194.80285,0,0,0-8.7147,69.23773c.60158,11.63133,3.4488,22.78884,7.63719,33.80615,4.72263,12.4228,7.05358,25.6607,1.4606,38.49394a67.73341,67.73341,0,0,1-19.18407,25.07082c-14.44087,12.01145-30.23264,21.87171-46.73267,30.71358-4.931,2.64233-9.825,5.35025-14.76755,7.97557a725.79927,725.79927,0,0,1-71.52157,32.67057q-30.63594,12.23435-62.34187,21.54639a794.18158,794.18158,0,0,1-106.462,23.6608c-23.69267,3.57045-47.33475,7.50261-71.25078,9.25015-18.4487,1.34819-36.9381,2.0125-55.30707-.92827-5.22424-.83643-10.46193-2.26612-14.92923-5.36014-6.30632-4.36784-6.40769-10.294-1.80846-16.47384C234.10691,896.37351,239.10087,894.378,243.91082,891.55293Zm96.91485-388.46222c7.78136-4.28348,14.55573-8.32569,21.59952-11.82583,15.24725-7.57658,30.15852-15.90106,46.32831-21.49229,1.82512-.63114,2.49419-1.7241,2.29111-3.71367-1.86351-18.25788,1.75883-35.76354,6.95281-53.14949a203.56513,203.56513,0,0,1,13.06694-32.75774c-7.52193,5.702-11.99711,13.60975-17.92681,20.25538-9.49182,10.63787-18.36495,21.869-26.94426,33.26721-7.05077,9.36742-14.89256,18.14488-21.18663,28.08119a8.16745,8.16745,0,0,1-.95236,1.33694C353.28354,474.23753,347.6597,488.36983,340.82567,503.09071Zm33.02365-89.2713.79709.85108c.21122-.33511.45134-.65585.62728-1.00858.3031-.60785-.36879-.57117-.58929-.83495C374.44027,413.11716,374.19608,413.40734,373.84932,413.81941Z" transform="translate(-223.02007 -47.6899)"/></svg>