<svg id="Layer_1" data-name="Layer 1" xmlns="http://www.w3.org/2000/svg" viewBox="0 0 717.89353 877.34354"><defs><style>.cls-1{fill:#fff;}</style></defs><title>logo3</title><path class="cls-1" d="M20.89075,843.863c-3.39577,3.06671-6.99628,5.93945-10.134,9.25073-3.674,3.87744-2.746,7.68054,2.99721,8.938a61.93327,61.93327,0,0,0,17.57664,1.14789c25.02164-1.75647,49.68469-6.06507,74.11813-11.55481,30.68238-6.89368,61.40482-13.73413,91.50251-22.90747,18.53918-5.65046,36.74865-12.37836,55.13183-18.54608,27.33283-9.17048,54.18293-19.60523,80.60279-31.11487,15.40033-6.70911,30.53143-14.01276,45.44409-21.78528a437.99489,437.99489,0,0,0,41.83117-24.74939c5.44172-3.65448,10.06891-8.35883,14.63739-13.02759,4.36353-4.45947,4.396-9.95911,3.1363-15.76318-2.20618-10.1662-7.01886-19.48078-9.11774-29.71607-4.3045-20.9909-3.67584-41.94665-.52753-62.93884,2.93323-19.55731,8.87458-38.35291,15.4494-56.90588a256.56813,256.56813,0,0,1,12.74482-29.56433A445.9166,445.9166,0,0,1,481.805,480.99876c2.188-3.34033,4.65576-6.49,6.3974-10.14362a1.53306,1.53306,0,0,0-2.152-.20477c-11.39453,6.59961-22.90027,13.00342-34.7962,18.64917-17.77564,8.4361-35.49482,17.23969-54.78119,21.66193-26.16059,5.99847-52.48145,11.43432-79.57837,10.44018-20.805-.76324-40.99225-4.44372-60.282-12.68658-14.21212-6.07318-26.9996-14.05267-38.10995-24.89215-11.64673-11.36267-20.28973-24.44174-25.05389-40.04282-1.4831-4.85644-1.48645-4.66665-6.38034-2.75192q-36.785,14.39223-73.64863,28.58246a9.73428,9.73428,0,0,0-5.637,4.92218,202.88073,202.88073,0,0,1-16.13354,26.04193c-6.16556,8.56061-12.24646,17.336-20.54691,24.22638a54.52288,54.52288,0,0,1-11.5936,7.54364c-3.37433,1.59265-6.8096,1.088-9.02353-1.52686-2.3442-2.76873-.663-5.87091,1.20581-8.57373a40.08008,40.08008,0,0,0,3.15424-5.17456c6.96927-14.3183,14.496-28.33551,20.66058-43.08508,5.11155-12.23007,8.88984-24.90091,13.89774-37.10657,4.82446-11.75857,7.5665-24.15921,12.08527-35.94339,5.35812-13.973,8.15124-28.61764,12.556-42.81329,7.00445-22.57434,9.87942-45.87888,13.5271-69.09067a282.63462,282.63462,0,0,0,1.583-76.96744c-2.57257-21.956-6.07318-43.969-13.37988-65.03291a304.64493,304.64493,0,0,0-11.4971-29.20259A285.98978,285.98978,0,0,0,78.39064,73.02536,233.77583,233.77583,0,0,0,57.09752,47.27831,216.518,216.518,0,0,0,16.43114,13.33757,64.68508,64.68508,0,0,0,3.03281,7.29689c-1.21537-.425-3.071-.67154-3.0324-2.79136C.0369,2.50605,1.74158,2.0826,2.97433,1.5249c5.8845-2.662,11.844-1.34627,17.6715.22882,13.91144,3.7601,26.184,10.80807,37.57773,19.43886A237.37106,237.37106,0,0,1,88.66093,48.41826a319.702,319.702,0,0,1,24.25788,29.63905c5.09833,6.97291,8.92447,14.63328,13.68692,21.725,5.07184,7.55234,7.94983,16.08988,12.17209,23.98407,6.09961,11.40412,9.12588,23.85042,13.34665,35.90938,8.31485,23.75586,10.72549,48.46608,13.02258,73.2732.98663,10.65478,2.15781,21.3255,1.292,31.94924-1.81067,22.219-3.41012,44.486-7.54355,66.44986-1.24081,6.59363-2.68112,13.15366-3.75015,19.7743-.66046,4.09-2.97684,7.61737-3.5285,11.70459-.122.9035-.77542,1.91723.52139,2.44006a2.13421,2.13421,0,0,0,2.49087-.91583,9.35151,9.35151,0,0,0,.7161-1.00247c5.804-8.76478,12.84573-16.576,19.30023-24.83472,8.9599-11.46445,18.32916-22.61441,27.69534-33.75427,7.8704-9.3609,15.92637-18.5683,24.011-27.746,8.90894-10.11346,17.75955-20.289,26.9801-30.11425,8.19373-8.73111,16.2085-17.61856,24.3198-26.42035,8.8511-9.60468,17.83249-19.08786,26.59146-28.7825,7.01245-7.76151,14.35547-15.22579,21.60187-22.774,13.95611-14.53743,27.88964-29.09733,41.95013-43.53343,6.54431-6.71924,13.27191-13.26721,20.0769-19.72381q21.33939-20.2469,42.879-40.282c7.58911-7.01951,15.39466-13.81545,23.28626-20.49526,13.79663-11.67818,27.81762-23.08659,42.21722-34.02065,1.0943-.83094,1.518-2.80935,3.29645-2.1654-5.35681,5.62585-10.78412,11.3467-16.24463,17.03568-.74127.7723-1.718,1.317-2.46973,2.08114-11.47027,11.65922-22.83111,23.42788-34.407,34.9811-8.38373,8.36724-16.54486,16.94476-24.82513,25.40782-13.25043,13.543-26.27918,27.26874-38.90991,41.40025q-12.38251,13.854-24.832,27.65511c-8.55341,9.53331-16.87891,19.26051-25.38807,28.82474-8.32336,9.35545-16.388,18.92407-24.60662,28.36375q-13.41175,15.40425-26.56968,31.01849-11.95074,14.23815-24.19363,28.23783c-5.27554,6.04785-10.48935,12.15753-15.17975,18.60824-3.75531,5.16492-5.4107,11.61567-7.92987,17.52665a375.157,375.157,0,0,0-16.65381,49.61926c-4.49631,16.65964-5.57312,33.33667-4.87207,50.36084.12369,3.00476,1.20221,3.36639,3.71692,2.78573a79.63056,79.63056,0,0,1,24.06979-1.94134c15.0322,1.13824,22.5824,12.287,17.60575,26.41476-3.08377,8.75446-6.456,17.40723-9.72275,26.17017l-.12354.04993c.07187-.088.19071-.16727.20874-.26517,1.48679-8.02319,2.8631-16.06863,4.49109-24.06293.74482-3.65787.06073-7.14966-.8612-10.53546a6.62942,6.62942,0,0,0-6.37592-4.99994c-9.49563-.493-18.43786,1.94882-27.19205,5.30377-1.40213.53736-1.5711,1.25983-1.06591,2.8248,4.90555,15.19477,14.039,27.2041,26.69742,36.817,20.06936,15.2409,43.20849,21.066,67.79275,22.626,20.515,1.302,40.67871-1.96789,60.93976-4.455,20.02569-2.45819,38.9129-8.36078,57.46417-16.006a509.852,509.852,0,0,0,51.34155-24.46546,568.35361,568.35361,0,0,0,50.1615-30.87271C544.52443,406.269,556.9565,396.7476,569.292,387.054q20.26-15.92083,38.87024-33.69379c8.77069-8.35669,17.39617-16.81528,25.61145-25.73392,8.4884-9.21527,16.92279-18.4353,24.83465-28.1723a422.84527,422.84527,0,0,0,25.73023-35.23569c4.73767-7.24118,8.35992-14.98938,12.6939-22.38,6.19507-10.56436,9.31238-22.28388,13.81989-33.487,4.37878-10.88326,4.43921-22.41209,6.79968-32.278,1.14246,13.87826-1.91687,28.61688-6.09912,42.96538-3.29736,11.31271-6.49274,22.79519-11.64917,33.49054-4.20434,8.72036-8.40686,17.48669-13.33728,25.80151a426.566,426.566,0,0,1-25.24908,37.65176c-7.64966,10.23954-15.82923,20.1138-24.22956,29.753-8.22754,9.44113-16.83166,18.5776-25.63928,27.48309-8.13934,8.2297-16.48828,16.303-25.28369,23.8143-5.36725,4.58377-10.37463,9.58871-16.13483,13.77618a59.07751,59.07751,0,0,0-14.21826,15.10541c-6.66736,9.9982-13.98559,19.52826-20.97919,29.28024-9.45068,13.17838-17.92858,26.91867-26.38659,40.71463-3.779,6.16419-6.564,12.80915-10.156,19.02631-5.76764,9.98248-9.47876,20.858-14.28711,31.24487-5.60815,12.11463-8.55474,24.99237-12.53051,37.59168a194.80223,194.80223,0,0,0-8.71473,69.23773c.60157,11.63135,3.4488,22.78882,7.63721,33.80615,4.72266,12.42279,7.05359,25.66071,1.46057,38.494a67.73356,67.73356,0,0,1-19.18408,25.0708c-14.44086,12.01147-30.23267,21.8717-46.73267,30.71356-4.931,2.64234-9.825,5.35022-14.76757,7.97559a725.79115,725.79115,0,0,1-71.52155,32.67059Q289.01363,833.975,257.30769,843.287a794.17544,794.17544,0,0,1-106.462,23.66083c-23.69266,3.57043-47.33475,7.50262-71.25077,9.25012-18.4487,1.3482-36.93811,2.01251-55.30706-.92829-5.22425-.83642-10.46193-2.26611-14.92923-5.36016-6.30632-4.36786-6.40769-10.294-1.80846-16.47382C11.08684,848.68364,16.08081,846.68809,20.89075,843.863ZM117.80559,455.4008c7.78137-4.28348,14.55572-8.32568,21.59952-11.82584,15.24725-7.57657,30.1585-15.90106,46.3283-21.49228,1.82514-.63113,2.49421-1.72409,2.29111-3.71368-1.86349-18.25787,1.75882-35.76355,6.95282-53.14948a203.56486,203.56486,0,0,1,13.06693-32.75775c-7.522,5.702-11.99711,13.60974-17.92682,20.25537-9.49182,10.63788-18.365,21.869-26.94428,33.26722-7.05078,9.36743-14.89255,18.14486-21.18664,28.08117a8.16779,8.16779,0,0,1-.95237,1.337c-10.77069,11.14514-16.39453,25.27746-23.22854,39.99832Zm33.02365-89.2713.79709.85107c.21121-.33511.45135-.65585.62729-1.00857.3031-.60785-.36881-.57117-.5893-.835-.24411.29022-.48831.58041-.835.99246Z" transform="translate(0.00018 -0.00014)"/></svg>